<?xml version="1.0" encoding="utf-8"?>
<!-- Generator: Adobe Illustrator 24.1.2, SVG Export Plug-In . SVG Version: 6.00 Build 0)  -->
<svg version="1.0" id="图层_1" xmlns="http://www.w3.org/2000/svg" xmlns:xlink="http://www.w3.org/1999/xlink" x="0px" y="0px"
	 viewBox="0 0 207 40" style="enable-background:new 0 0 207 40;" xml:space="preserve">
<style type="text/css">
	.st0{fill:url(#SVGID_1_);}
	.st1{fill:url(#SVGID_2_);}
	.st2{fill:url(#SVGID_3_);}
	.st3{fill:url(#SVGID_4_);}
	.st4{fill:url(#SVGID_5_);}
	.st5{fill:url(#SVGID_6_);}
	.st6{fill:url(#SVGID_7_);}
	.st7{fill:url(#SVGID_8_);}
	.st8{fill:url(#SVGID_9_);}
	.st9{fill:#FFFFFF;}
</style>
<g>
	<g>
		<g>
			
				<radialGradient id="SVGID_1_" cx="20.4524" cy="39.9046" r="36.4256" gradientTransform="matrix(1 0 0 -1 0 42)" gradientUnits="userSpaceOnUse">
				<stop  offset="0.2456" style="stop-color:#EDD900"/>
				<stop  offset="1" style="stop-color:#F29600"/>
			</radialGradient>
			<path class="st0" d="M8.8,14.1c0.8-3.6,2.8-6.7,5.6-8.9C12.8,4.4,11,3.8,9.2,3.5C5.3,6.1,2.3,10,1.1,14.6
				C3.6,13.9,6.2,13.7,8.8,14.1z"/>
			
				<radialGradient id="SVGID_2_" cx="20.4524" cy="39.9046" r="36.4256" gradientTransform="matrix(1 0 0 -1 0 42)" gradientUnits="userSpaceOnUse">
				<stop  offset="0.2456" style="stop-color:#EDD900"/>
				<stop  offset="1" style="stop-color:#F29600"/>
			</radialGradient>
			<path class="st1" d="M11.3,26c-1.8-2.5-2.8-5.5-2.8-8.8c0-0.9,0.1-1.7,0.2-2.6c-2.6-0.4-5.3-0.2-7.8,0.6
				c-0.4,1.5-0.6,3.1-0.6,4.7c0,4.1,1.3,8,3.5,11.2C5.8,28.9,8.4,27.1,11.3,26z"/>
			
				<radialGradient id="SVGID_3_" cx="20.4524" cy="39.9046" r="36.4256" gradientTransform="matrix(1 0 0 -1 0 42)" gradientUnits="userSpaceOnUse">
				<stop  offset="0.2456" style="stop-color:#EDD900"/>
				<stop  offset="1" style="stop-color:#F29600"/>
			</radialGradient>
			<path class="st2" d="M21.8,32.3c-4.1-0.5-7.8-2.7-10.2-5.8c-3,1-5.6,2.8-7.5,5.1c3.6,4.9,9.4,8.1,15.9,8.2
				C21.1,37.5,21.8,34.9,21.8,32.3z"/>
			<g>
				
					<radialGradient id="SVGID_4_" cx="20.4524" cy="39.9046" r="36.4256" gradientTransform="matrix(1 0 0 -1 0 42)" gradientUnits="userSpaceOnUse">
					<stop  offset="0.2456" style="stop-color:#EDD900"/>
					<stop  offset="1" style="stop-color:#F29600"/>
				</radialGradient>
				<path class="st3" d="M34.7,33.4c0-1.6-0.3-3.3-0.8-4.8c-2.7,2.4-6.3,3.9-10.2,3.9c-0.4,0-0.9,0-1.3-0.1
					c-0.1,2.6-0.7,5.1-1.8,7.4C26.1,39.6,31.1,37.2,34.7,33.4z"/>
				<g>
					
						<radialGradient id="SVGID_5_" cx="20.4524" cy="39.9046" r="36.4256" gradientTransform="matrix(1 0 0 -1 0 42)" gradientUnits="userSpaceOnUse">
						<stop  offset="0.2456" style="stop-color:#EDD900"/>
						<stop  offset="1" style="stop-color:#F29600"/>
					</radialGradient>
					<path class="st4" d="M9.9,3.1c1.7,0.3,3.4,0.9,5,1.8C17.3,3.1,20.4,2,23.7,2c4,0,7.5,1.4,10.2,3.8c-3.6-3.5-8.4-5.6-13.8-5.6
						C16.3,0.2,12.9,1.3,9.9,3.1z"/>
					
						<radialGradient id="SVGID_6_" cx="20.4524" cy="39.9046" r="36.4256" gradientTransform="matrix(1 0 0 -1 0 42)" gradientUnits="userSpaceOnUse">
						<stop  offset="0.2456" style="stop-color:#EDD900"/>
						<stop  offset="1" style="stop-color:#F29600"/>
					</radialGradient>
					<path class="st5" d="M37,9.8c1.2,2.2,1.9,4.7,1.9,7.4c0,4.3-1.8,8.1-4.6,10.9c0.5,1.5,0.8,3.1,0.9,4.7
						c2.9-3.5,4.7-7.9,4.7-12.8C39.8,16.3,38.8,12.8,37,9.8z"/>
				</g>
			</g>
		</g>
		
			<linearGradient id="SVGID_7_" gradientUnits="userSpaceOnUse" x1="35.4212" y1="28.5992" x2="19.1534" y2="19.4157" gradientTransform="matrix(1 0 0 -1 0 42)">
			<stop  offset="9.800000e-02" style="stop-color:#54C2F0"/>
			<stop  offset="1" style="stop-color:#0075C1"/>
		</linearGradient>
		<path class="st6" d="M36.2,18c0.4-8.6-6.8-12-6.8-12c2.5,2.2,5.4,5.6,4.7,11.2c-0.3,2.3-2.1,4.3-3.7,5.1c-3.5,1.7-7.3-0.7-6.7-4
			c0.3-1.5,1.9-2.2,2.4-2.2c-1.5-1.1-4-0.7-5.4,0.4c-1.6,1.3-2,3.1-2,4.7c0,2,1.4,4,2.9,5C27.4,30.3,35.8,26.3,36.2,18z"/>
		
			<linearGradient id="SVGID_8_" gradientUnits="userSpaceOnUse" x1="17.5508" y1="15.0993" x2="27.2591" y2="27.6937" gradientTransform="matrix(1 0 0 -1 0 42)">
			<stop  offset="9.800000e-02" style="stop-color:#54C2F0"/>
			<stop  offset="1" style="stop-color:#0075C1"/>
		</linearGradient>
		<path class="st7" d="M21.8,28.2c-1.8-0.8-4-2-4.9-5.3c-1.1-4,1.3-6.9,2.9-8c1.6-1,3.1-1.2,4.4-1.2c2.4,0.1,4.6,1.7,5.5,3.2
			c0.1-1-1-5.2-5.6-6.1c-2.7-0.5-5.3,0.3-7,1.6c-2,1.6-3.1,3.9-3.3,6.6c-0.2,3.4,1.1,7.2,4.4,9.3c2.9,1.9,6.6,2,9.6,0.8
			C25.1,29.3,23.1,28.7,21.8,28.2z"/>
		
			<linearGradient id="SVGID_9_" gradientUnits="userSpaceOnUse" x1="11.1495" y1="27.9892" x2="32.529" y2="27.9892" gradientTransform="matrix(1 0 0 -1 0 42)">
			<stop  offset="9.800000e-02" style="stop-color:#54C2F0"/>
			<stop  offset="1" style="stop-color:#0075C1"/>
		</linearGradient>
		<path class="st8" d="M32.5,14.1c-0.5-4-3.5-8-7.3-8.8C21.8,4.6,17.8,5.4,15,8.1C10.9,12,10.1,18.3,12.5,23
			c-0.7-3.6-0.7-5.9,0.3-8.3c1.6-4,5.8-6.3,10.6-5.8c4.7,0.4,7.7,4.4,7.5,8.7c-0.1,1.3-0.3,2.1-0.6,2.8
			C32.1,18.7,32.8,16.7,32.5,14.1z"/>
	</g>
	<g>
		<g>
			<path class="st9" d="M70.4,9.2c-0.1-0.3-0.3-0.4-0.5-0.5c-0.3,0-0.5,0.1-0.6,0.3l-6.9,13.4L55.6,9c-0.1-0.2-0.3-0.4-0.6-0.3
				c-0.3,0-0.5,0.2-0.5,0.5l-4.8,20c0,0.2,0,0.4,0.1,0.5s0.3,0.2,0.5,0.2h2.9c0.3,0,0.5-0.2,0.6-0.5l2.5-9.7l5.5,10.7
				c0.1,0.2,0.3,0.3,0.5,0.3l0,0c0.2,0,0.4-0.1,0.5-0.3l5.6-10.6l2.3,9.7c0.1,0.3,0.3,0.5,0.6,0.5h2.9c0.2,0,0.3-0.1,0.5-0.2
				c0.1-0.1,0.2-0.3,0.1-0.5L70.4,9.2z"/>
			<path class="st9" d="M147.5,10.1c-0.3,0-0.6,0.3-0.6,0.6v2.6c0,0.3,0.3,0.6,0.6,0.6h5.5v15.4c0,0.3,0.3,0.6,0.6,0.6h2.8
				c0.3,0,0.6-0.3,0.6-0.6V13.9h5.2c0.3,0,0.5-0.2,0.6-0.6l1.2-2.6c0-0.3-0.3-0.6-0.6-0.6C163.4,10.1,147.5,10.1,147.5,10.1z"/>
			<path class="st9" d="M175.1,9.8c-2.8,0-5.3,1-7.3,3c-2,2-3.1,4.4-3.1,7.2c0,3.1,1.1,5.7,3.4,7.7c2,1.8,4.3,2.6,6.9,2.6
				c2.9,0,5.3-1,7.4-3c2-2,3.1-4.4,3.1-7.2c0-2.8-1-5.3-3-7.3S177.9,9.8,175.1,9.8z M175,26.4c-1.6,0-3.1-0.6-4.3-1.8
				c-1.3-1.2-1.9-2.7-1.9-4.6c0-1.8,0.6-3.3,1.8-4.5c1.2-1.2,2.7-1.8,4.5-1.8c1.8,0,3.3,0.6,4.5,1.8c1.2,1.2,1.8,2.7,1.8,4.6
				c0,1.8-0.6,3.3-1.8,4.6C178.3,25.8,176.8,26.4,175,26.4z"/>
			<path class="st9" d="M88.2,9.8c-2.8,0-5.3,1-7.3,3c-2,2-3.1,4.4-3.1,7.2c0,3.1,1.1,5.7,3.4,7.7c2,1.8,4.3,2.6,6.9,2.6
				c2.9,0,5.3-1,7.4-3c2-2,3.1-4.4,3.1-7.2c0-2.8-1-5.3-3-7.3C93.4,10.8,91,9.8,88.2,9.8z M88.1,26.4c-1.7,0-3.1-0.6-4.3-1.8
				c-1.3-1.2-1.9-2.7-1.9-4.6c0-1.8,0.6-3.3,1.8-4.5c1.2-1.2,2.7-1.8,4.5-1.8c1.8,0,3.3,0.6,4.5,1.8c1.2,1.2,1.8,2.7,1.8,4.6
				c0,1.8-0.6,3.3-1.8,4.6C91.3,25.8,89.8,26.4,88.1,26.4z"/>
			<path class="st9" d="M112.2,9.8c-2.8,0-5.3,1-7.3,3c-2,2-3.1,4.4-3.1,7.2c0,3.1,1.1,5.7,3.4,7.7c2,1.8,4.3,2.6,6.9,2.6
				c2.9,0,5.3-1,7.4-3c2-2,3.1-4.4,3.1-7.2c0-2.8-1-5.3-3-7.3C117.4,10.8,115,9.8,112.2,9.8z M112.1,26.4c-1.7,0-3.1-0.6-4.3-1.8
				c-1.3-1.2-1.9-2.7-1.9-4.6c0-1.8,0.6-3.3,1.8-4.5c1.2-1.2,2.7-1.8,4.5-1.8c1.8,0,3.3,0.6,4.5,1.8c1.2,1.2,1.8,2.7,1.8,4.6
				c0,1.8-0.6,3.3-1.8,4.6C115.4,25.8,113.9,26.4,112.1,26.4z"/>
			<path class="st9" d="M126.4,12.5v16.8c0,0.3,0.3,0.6,0.6,0.6h2.8c0.3,0,0.6-0.3,0.6-0.6V17.8L143,30.5c0.1,0.1,0.3,0.2,0.4,0.2
				c0.1,0,0.1,0,0.2,0c0.2-0.1,0.4-0.3,0.4-0.6V10.7c0-0.3-0.3-0.6-0.6-0.6h-2.8c-0.3,0-0.6,0.3-0.6,0.6v11.1l-10.9-11
				c-0.2-0.2-0.6-0.2-0.9,0L126.4,12.5"/>
			<path class="st9" d="M189.1,12.5v16.8c0,0.3,0.3,0.6,0.6,0.6h2.8c0.3,0,0.6-0.3,0.6-0.6V17.8l12.5,12.7c0.1,0.1,0.3,0.2,0.4,0.2
				c0.1,0,0.1,0,0.2,0c0.2-0.1,0.4-0.3,0.4-0.6V10.7c0-0.3-0.3-0.6-0.6-0.6h-2.8c-0.3,0-0.6,0.3-0.6,0.6v11.1l-10.9-11
				c-0.2-0.2-0.6-0.2-0.9,0L189.1,12.5"/>
		</g>
	</g>
</g>
</svg>
